# xmcd
#
# Track frame offsets:
#	150
#	20650
#	33052
#	41876
#	57730
#	76060
#	90072
#	103534
#	118059
#	136994
#	154697
#	173424
#	189411
#	206386
#	218608
#
# Disc length: 3301
#
# Revision: 2
# Processed by: cddbd v1.5.1PL0 Copyright (c) Steve Scherf et al.
# Submitted via: CDex 1.50Beta7
# Normalized: r1:DSETVAR1,TDELIM( - )
#
DISCID=b60ce30f
DTITLE=Various Artist - CMT Christmas 2 Ghosts Of Christmas Past
DYEAR=2002
DGENRE=Country
TTITLE0=J. Richard Hutt - O Tannenbaum
TTITLE1=Michelle Wright - Sleep Well Little Children
TTITLE2=Mike Plume - Have A Little Faith In Me
TTITLE3=Beverley Mahood - God Rest Ye Merry Gentlemen
TTITLE4=Lisa Brokop - I Saw Christmas
TTITLE5=Jason McCoy - Song For A Winter's Night
TTITLE6=Paul Brandt - I Heard The Bells On Christmas Day
TTITLE7=Lace with Jason Barry - O Come All Ye Faithful
TTITLE8=Chris Cummings - It Must Be Christmas
TTITLE9=Fables - The Holly and The Ivy
TTITLE10=Lace - Winter Wonderland
TTITLE11=Jason McCoy - Thanks For The Present
TTITLE12=Shirley Myers - Christmas Wish
TTITLE13=John Landry - Cowboy's Christmas
TTITLE14=Beverley Mahood and Lace - Hace A Little Faith/Hark The Herald/Angels We Have Heard On High
EXTD=YEAR: 2002
EXTT0=
EXTT1=
EXTT2=
EXTT3=
EXTT4=
EXTT5=
EXTT6=
EXTT7=
EXTT8=
EXTT9=
EXTT10=
EXTT11=
EXTT12=
EXTT13=
EXTT14=
PLAYORDER=
